<svg id="Layer_1" data-name="Layer 1" xmlns="http://www.w3.org/2000/svg" width="800" height="800" viewBox="0 0 800 800"><defs><style>.cls-1{fill:#fff;stroke:#fff;stroke-linecap:round;stroke-linejoin:round;}</style></defs><title>HamburgerMenu</title><path class="cls-1" d="M687.62,172.41H112.38c-23,0-41.63,22.35-41.63,49.92s18.64,49.92,41.63,49.92H687.62c23,0,41.63-22.35,41.63-49.92S710.61,172.41,687.62,172.41Z"/><path class="cls-1" d="M687.62,350.08H112.38c-23,0-41.63,22.35-41.63,49.92s18.64,49.92,41.63,49.92H687.62c23,0,41.63-22.35,41.63-49.92S710.61,350.08,687.62,350.08Z"/><path class="cls-1" d="M687.62,527.75H112.38c-23,0-41.63,22.35-41.63,49.92s18.64,49.92,41.63,49.92H687.62c23,0,41.63-22.35,41.63-49.92S710.61,527.75,687.62,527.75Z"/></svg>